<?xml version="1.0" standalone="no"?>
<!DOCTYPE svg PUBLIC "-//W3C//DTD SVG 20010904//EN"
 "http://www.w3.org/TR/2001/REC-SVG-20010904/DTD/svg10.dtd">
<svg version="1.0" xmlns="http://www.w3.org/2000/svg"
 width="260.000000pt" height="260.000000pt" viewBox="0 0 260.000000 260.000000"
 preserveAspectRatio="xMidYMid meet">
<metadata>
Created by potrace 1.11, written by Peter Selinger 2001-2013
</metadata>
<g transform="translate(0.000000,260.000000) scale(0.100000,-0.100000)"
fill="#000000" stroke="none">
<path d="M1035 2576 c-11 -7 -44 -16 -74 -19 -30 -4 -59 -11 -65 -17 -5 -5
-24 -10 -42 -10 -17 0 -37 -7 -44 -15 -7 -8 -21 -15 -31 -15 -19 0 -183 -77
-234 -110 -16 -11 -37 -23 -45 -27 -8 -3 -17 -9 -20 -12 -3 -3 -19 -16 -37
-28 -27 -19 -46 -23 -128 -24 -137 -3 -134 -21 5 -34 25 -2 47 -4 49 -4 2 -1
-2 -8 -9 -16 -10 -12 -30 -13 -104 -9 -112 7 -106 7 -188 3 -63 -3 -68 -5 -68
-26 0 -18 6 -23 24 -23 14 0 28 -4 31 -10 3 -5 32 -10 63 -10 l57 0 -30 -25
-30 -26 67 5 c38 2 68 3 68 1 0 -11 -52 -54 -63 -51 -6 1 -9 1 -4 -1 15 -9 6
-45 -13 -50 -14 -4 -22 -17 -26 -45 -5 -26 -15 -45 -31 -55 -18 -12 -21 -18
-12 -24 16 -10 -34 -24 -56 -15 -30 11 -45 -5 -45 -48 0 -36 4 -43 29 -54 35
-15 32 -42 -5 -42 l-24 0 0 -870 0 -870 1300 0 1300 0 0 794 c0 626 -3 796
-12 800 -10 5 -10 7 0 12 8 4 12 39 12 123 l0 118 -48 -5 c-39 -3 -50 -1 -55
12 -4 11 1 18 18 22 17 4 24 12 22 28 -1 16 3 21 21 21 25 0 42 19 42 48 0 15
-8 18 -57 16 -93 -3 -107 0 -121 22 -13 20 -12 21 25 16 132 -20 153 -19 153
1 0 24 -24 31 -83 25 -26 -3 -47 -1 -51 6 -9 14 36 25 77 19 51 -8 57 -2 57
63 0 40 -4 59 -12 60 -135 8 -166 8 -196 -2 -27 -9 -37 -9 -40 0 -2 6 -19 11
-39 11 -19 0 -41 7 -49 15 -14 13 -11 15 24 15 41 0 84 29 46 31 -11 1 -24 1
-31 0 -6 -1 -13 11 -15 26 -3 25 -4 26 -20 10 -19 -20 -50 -22 -81 -5 -21 11
-21 11 -2 19 11 4 32 8 48 8 32 1 35 11 6 29 -13 9 -25 10 -32 4 -17 -14 -103
1 -125 21 -10 10 -24 17 -30 17 -7 0 -12 4 -12 8 0 5 -19 17 -42 28 -24 10
-45 21 -48 24 -11 11 -167 70 -187 70 -11 0 -23 3 -27 7 -10 10 -96 32 -166
43 -30 5 -159 9 -285 9 -178 1 -235 -2 -250 -13z m-760 -416 c-3 -5 -21 -10
-38 -10 -24 0 -28 3 -17 10 20 13 63 13 55 0z m2185 -50 c0 -5 -7 -10 -15 -10
-8 0 -15 5 -15 10 0 6 7 10 15 10 8 0 15 -4 15 -10z m-20 -40 c0 -16 -21 -22
-36 -9 -11 9 -12 14 -3 20 14 8 39 1 39 -11z m88 -142 c-3 -7 -14 -14 -26 -16
-16 -3 -20 1 -16 12 7 19 48 22 42 4z m-1139 -43 c53 -2 78 -8 90 -20 15 -16
13 -17 -39 -10 -67 8 -262 7 -310 -2 -32 -6 -34 -5 -21 11 7 9 31 19 53 22 21
4 40 10 43 14 2 4 28 3 57 -2 29 -5 86 -11 127 -13z m-218 -137 c5 -8 0 -16
-14 -22 -32 -13 -164 -13 -178 1 -8 8 -18 7 -37 -3 -32 -16 -58 -18 -67 -4 -4
6 7 13 24 16 16 4 32 12 34 18 7 18 227 11 238 -6z m229 -3 c11 -13 4 -15 -49
-15 -55 0 -71 6 -56 22 13 12 94 7 105 -7z m70 -5 c0 -5 -9 -10 -19 -10 -11 0
-23 5 -26 10 -4 6 5 10 19 10 14 0 26 -4 26 -10z m80 0 c22 -7 21 -8 -12 -9
-21 -1 -38 4 -38 9 0 11 14 11 50 0z m110 0 c0 -5 -7 -10 -16 -10 -8 0 -12 5
-9 10 3 6 10 10 16 10 5 0 9 -4 9 -10z m70 -16 c0 -2 -7 -4 -15 -4 -8 0 -15 4
-15 10 0 5 7 7 15 4 8 -4 15 -8 15 -10z m-383 -40 c-3 -3 -12 -4 -19 -1 -8 3
-5 6 6 6 11 1 17 -2 13 -5z m323 -85 c0 -11 -27 -12 -34 0 -3 4 -3 11 0 14 8
8 34 -3 34 -14z m-732 -17 c2 -7 -4 -12 -13 -12 -9 0 -14 -4 -10 -9 6 -11 -22
-19 -47 -13 -14 3 -11 9 15 27 34 25 48 26 55 7z m112 9 c0 -13 -29 -35 -37
-28 -7 8 15 37 28 37 5 0 9 -4 9 -9z m536 1 c6 -4 13 -15 17 -24 10 -27 -16
-22 -43 7 -22 23 -22 25 -4 25 10 0 24 -4 30 -8z m194 -2 c3 -1 -8 -6 -25 -9
-34 -8 -48 -4 -39 10 4 8 43 7 64 -1z m-780 -50 c0 -5 -2 -10 -4 -10 -3 0 -8
5 -11 10 -3 6 -1 10 4 10 6 0 11 -4 11 -10z m433 -73 c67 -30 137 -98 162
-155 10 -22 23 -38 28 -35 19 12 -3 -88 -30 -138 -42 -77 -72 -105 -163 -150
-62 -31 -280 -20 -280 14 0 4 -5 7 -11 7 -20 0 -86 61 -110 103 -20 35 -24 56
-24 122 0 67 4 87 25 124 70 123 259 174 403 108z"/>
<path d="M85 2430 c-3 -5 -1 -10 4 -10 6 0 11 5 11 10 0 6 -2 10 -4 10 -3 0
-8 -4 -11 -10z"/>
<path d="M89 2360 c-6 -4 -28 -6 -50 -5 -21 1 -39 -1 -39 -5 0 -10 191 -19
256 -13 30 3 54 10 54 14 0 10 4 10 -118 13 -50 1 -97 -1 -103 -4z"/>
<path d="M2585 2354 c-5 -1 -36 -5 -67 -9 -62 -7 -76 -21 -30 -31 54 -12 56
-13 41 -30 -10 -12 -28 -15 -83 -12 -61 3 -71 1 -74 -14 -3 -13 3 -18 20 -17
23 0 64 -5 124 -17 19 -3 34 -1 38 5 4 6 16 11 27 11 12 0 19 7 19 20 0 15 -7
20 -25 20 -14 0 -25 5 -25 10 0 6 6 10 13 10 8 0 20 11 27 25 14 26 12 34 -5
29z"/>
<path d="M385 2340 c3 -5 12 -7 20 -3 21 7 19 13 -6 13 -11 0 -18 -4 -14 -10z"/>
<path d="M2405 2340 c-3 -6 1 -13 10 -16 19 -8 30 0 20 15 -8 14 -22 14 -30 1z"/>
<path d="M87 2293 c-24 -23 9 -31 39 -8 18 14 18 14 -7 15 -14 0 -29 -3 -32
-7z"/>
<path d="M8 2283 c7 -3 16 -2 19 1 4 3 -2 6 -13 5 -11 0 -14 -3 -6 -6z"/>
<path d="M7 2144 c-17 -17 -4 -24 50 -24 41 0 54 3 46 11 -13 13 -85 23 -96
13z"/>
<path d="M35 2080 c-3 -4 10 -10 29 -12 37 -4 56 0 56 11 0 10 -79 11 -85 1z"/>
<path d="M38 2013 c7 -3 16 -2 19 1 4 3 -2 6 -13 5 -11 0 -14 -3 -6 -6z"/>
<path d="M70 2011 c0 -5 8 -9 18 -9 9 0 25 -3 36 -7 14 -6 18 -5 14 6 -5 16
-68 26 -68 10z"/>
<path d="M30 1980 c-13 -8 -13 -10 2 -10 9 0 20 5 23 10 8 13 -5 13 -25 0z"/>
<path d="M25 1910 c3 -5 13 -10 21 -10 8 0 14 5 14 10 0 6 -9 10 -21 10 -11 0
-17 -4 -14 -10z"/>
<path d="M2586 1881 c-4 -7 -5 -15 -2 -18 9 -9 19 4 14 18 -4 11 -6 11 -12 0z"/>
</g>
</svg>
