<?xml version="1.0" encoding="UTF-8"?>
<!DOCTYPE svg PUBLIC "-//W3C//DTD SVG 1.1//EN" "http://www.w3.org/Graphics/SVG/1.1/DTD/svg11.dtd">
<!-- Creator: CorelDRAW -->
<svg xmlns="http://www.w3.org/2000/svg" xml:space="preserve" width="2642px" height="1346px" style="shape-rendering:geometricPrecision; text-rendering:geometricPrecision; image-rendering:optimizeQuality; fill-rule:evenodd; clip-rule:evenodd"
viewBox="0 0 2642 1346"
 xmlns:xlink="http://www.w3.org/1999/xlink">
 <defs>
  <style type="text/css">
   <![CDATA[
    .str1 {stroke:#1F1A17;stroke-width:4.16628}
    .str0 {stroke:#1F1A17;stroke-width:8.33373}
    .fil0 {fill:none}
    .fil1 {fill:#1F1A17}
    .fnt0 {font-weight:normal;font-size:33.3373;font-family:'Arial'}
   ]]>
  </style>
 </defs>
 <g id="Layer_x0020_1">
  <metadata id="CorelCorpID_0Corel-Layer"/>
  <path class="fil0 str0" d="M97.0753 982.193c-1.27103,0.422888 -2.99684,-15.511 -3.54376,-18.1617 -0.963902,-4.66713 -0.712295,-15.1413 -3.10079,-18.6047 -10.5887,-15.348 4.14974,-29.0163 -10.8711,-30.0912 -5.53653,-0.395719 -16.0674,-21.513 -12.6063,-27.0519 6.88197,-11.0128 -10.8533,-18.5539 -15.9469,-23.9204 -15.6079,-16.4395 -7.24107,-20.6282 -0.885939,-42.5251 0,-30.4314 11.4026,-53.7682 35.4376,-71.3181 12.122,-8.8523 3.98673,-28.2804 3.98673,-39.8673 0,-23.1147 4.77816,-24.1613 17.2758,-38.0954 2.29163,-2.55387 20.1285,-55.774 20.8196,-61.1298 5.72553,-11.3542 41.1666,-57.3604 45.6259,-66.0025 5.34517,-10.3596 14.7786,-2.84091 24.3633,-15.061 27.4594,-35.0099 82.9109,24.3633 104.541,24.3633 11.1286,0 19.1339,-14.592 29.236,-19.0477 19.0512,0 13.9872,25.4961 35.4376,23.0344 8.16481,-0.936733 24.3456,-8.80033 30.5649,-13.7321 22.152,-17.5664 60.9337,2.03884 72.204,-38.5383 5.90153,-21.2519 30.709,-13.8183 46.9548,-15.061 4.0765,-0.311851 13.3789,-17.1553 15.9469,-29.236 3.09134,-65.9658 45.9802,-18.9118 77.0767,-55.8142 23.2872,-27.633 13.5431,-44.7624 18.6047,-83.7212 11.6672,-89.8118 85.4211,-63.132 129.79,-119.602 1.80968,-2.83382 1.32891,-5.95351 1.32891,-9.30236 0,-2.22193 -7.72657,-15.9469 0.442969,-15.9469 21.5413,0 18.5894,-6.18622 31.4508,-19.0477 7.01073,-7.01073 13.2017,-10.0879 20.8196,-15.9469 9.96622,-7.66633 1.14109,-30.572 19.4907,-27.0211 14.7255,-1.47184 32.2813,-12.8957 39.4243,-8.85939 7.24816,4.09422 5.65111,7.08751 16.3899,7.08751 16.977,0 11.8988,14.4609 30.1219,0.442969 26.9207,-20.7073 37.7847,-11.9602 73.09,-11.9602 23.8577,0 12.3713,24.3385 13.7321,40.7532 1.3419,16.1914 1.52027,55.8118 33.6657,37.6524 26.3715,-14.8991 9.07438,-3.84852 31.0079,-1.32891 9.34725,1.07258 11.1782,-3.98082 22.5914,-1.77188 13.4675,0 12.4031,-3.39964 12.4031,-15.9469 0,-15.7107 12.4031,-12.5284 12.4031,-19.9336 0,-9.53034 -0.485495,-5.96887 1.77188,-14.618 7.97227,-30.5472 17.6668,-34.9946 47.8407,-34.9946 21.6665,0 16.1076,-12.1161 25.2493,-25.2493 7.45016,-10.7057 29.8195,-41.8801 37.6524,-15.9469 3.6607,12.1185 23.4774,6.52642 23.4774,23.4774 0,19.2828 8.02661,24.7472 9.74533,42.5251 3.86624,3.86624 2.67908,12.3476 6.64454,16.8328 4.4864,5.07584 9.66618,8.92554 16.8328,10.6313 23.1833,5.51763 12.8461,9.31299 12.8461,28.35 0,6.00194 17.5534,7.51985 23.0344,7.97345 7.63443,0.633151 11.6235,7.0946 18.6047,6.64454 4.80061,-3.80718 11.4534,-13.184 19.0477,-12.4031 2.26328,0.231525 12.4031,25.5198 12.4031,28.35 0,30.0546 -6.4142,35.0879 10.1883,53.5993 4.27495,4.76517 -15.0338,24.3196 -18.6047,30.1219 -11.3885,18.509 -8.95507,27.6141 15.9469,29.679 32.6096,2.70507 37.6453,-32.6687 61.1298,-22.1485 18.4512,8.2664 59.8009,64.4763 59.8009,16.3899 0,-24.4165 17.2758,-35.5958 17.2758,-54.9282 0.919014,-5.98186 1.50255,-20.5396 8.47903,-20.601 7.04026,-0.0614251 6.88788,20.164 15.6256,-5.90862 8.46485,-25.2623 59.6166,14.6511 59.6166,-43.9225 0,-15.6291 37.9619,11.2502 46.0688,-3.10079 12.4445,-22.0268 33.2357,11.0742 60.6868,11.0742 6.10471,0 76.1908,-59.1961 76.1908,-3.10079 0,11.8373 25.567,17.8995 31.0079,28.793 5.94524,11.9058 21.1917,-5.9098 26.1352,3.98673 6.24528,12.5059 18.4452,19.4907 33.6657,19.4907 22.3115,0 27.4759,-25.7643 36.7665,-37.2094 6.10353,-7.52103 24.9988,-1.58288 27.4641,-8.41642 4.0765,-11.3046 -15.061,-17.1057 -15.061,-30.1219 0,-7.07806 29.2998,-13.6364 34.1087,-12.4031 13.4356,3.44453 28.0784,36.8905 42.5251,3.54376 6.59729,-9.47955 15.0669,-29.673 25.2493,-19.4907 3.60518,3.60518 67.9007,27.0211 72.647,27.0211 12.9465,0 8.86293,-10.6313 14.175,-10.6313 2.81729,0 9.57523,6.50515 11.5172,5.7586 13.9848,-5.37706 44.1209,-24.0964 59.8009,-8.41642 10.1139,10.1139 17.4943,7.46197 30.5649,15.5039 13.849,8.52273 15.1933,31.5536 32.3368,26.5782 19.7045,-25.6178 17.5782,-14.6357 41.1962,0.442969 5.65347,3.60991 32.6002,10.3029 34.9946,13.2891 7.23399,9.0224 6.16141,21.5 12.4031,25.2493 23.0687,13.8596 12.4197,48.5861 18.6047,55.3712 10.0087,10.9797 74.3574,26.6361 78.4056,20.8196 3.94184,-5.66174 14.5778,22.1036 25.2493,26.5782 2.76531,0.855226 20.1557,5.0782 22.5914,3.10079 14.8873,-12.0818 30.1184,8.04433 40.3102,16.3899 11.1274,9.111 20.8373,5.63457 31.0079,9.30236 5.81885,2.0979 27.1593,0.828058 28.35,1.77188 16.8931,13.3966 3.54376,24.5996 3.54376,40.7532 0,39.1502 -33.7992,17.1506 -31.0079,46.9548 -2.65309,7.08397 1.61241,9.91189 -5.31563,14.175 -4.75336,2.9236 -5.25067,6.70597 -5.7586,12.8461 -1.31473,15.8571 2.85745,21.598 -12.4031,32.3368 -24.3881,24.3881 -1.15054,30.6736 -5.7586,54.4852 -6.95049,11.2963 -18.6047,14.6924 -18.6047,30.1219 0,31.0126 -0.355557,45.4369 -26.5782,61.5728 -16.3084,10.0359 -14.0782,23.0462 -27.9071,34.1087 -24.5039,19.6041 -20.6128,18.9485 -23.9204,53.1563 11.3743,21.3299 0.424069,14.9405 0.47132,31.4296 0.14175,48.7538 5.0723,55.5448 -24.1802,74.1803 -6.01139,3.82962 -9.42757,-6.70479 -26.2805,-5.65583 -5.94524,0.369732 -13.0446,5.57551 -20.4427,5.47274 -33.0656,-0.46187 -30.4787,10.4494 -54.3541,12.2401 -11.6046,0.870583 -18.0436,15.6669 -26.7093,15.6669 -49.7496,0 -61.9779,-33.6302 -83.1696,-69.473 0,-8.79206 -7.06861,-19.4009 -7.06861,-28.0536 0,-11.6743 -14.5247,-9.05666 -24.0775,-9.05666 -13.9659,0 -9.65083,-1.74943 -13.9163,-12.1492 -3.27561,-7.98881 -7.68995,-14.5814 -14.7999,-18.776 -4.74981,-2.80075 -28.9608,-17.8452 -30.9252,-13.9163 -5.62748,11.2573 -10.6029,6.39884 -20.3223,10.1611 -35.0985,2.01285 -29.7451,5.34517 -36.0057,20.764 -4.25487,10.4824 -2.21012,18.0732 -18.5551,9.05666 -19.9962,-11.0305 -35.3135,-0.74537 -49.0385,9.27755 -17.9609,13.1154 -12.8721,5.19869 -32.2505,-2.87162 -20.6247,-8.58888 -23.8625,-9.5646 -49.7012,-7.06861 -6.92922,0 -20.5077,-6.63509 -21.4267,-13.6954 -1.48483,-11.4156 -17.8558,-3.81663 -24.0775,-7.5104 -4.8892,-2.90115 -7.6994,-7.86596 -12.591,-10.1611 -13.8407,-6.49689 -62.3973,1.3171 -77.5338,5.52235 -17.7566,4.93173 -27.2031,11.5373 -47.2713,13.2536 -1.51437,0 -3.55439,1.15526 -4.63878,1.76715 -3.57683,2.0223 -9.6839,-0.0531563 -13.2536,1.54626 -5.49637,2.46409 -8.83576,8.05259 -8.83576,14.1372 0,14.1762 4.69311,25.7903 -7.28951,33.5759 -18.8504,12.246 -26.9597,33.8287 -33.7968,54.34 0,25.6355 -12.1173,28.9052 -17.8924,49.7012 -4.1143,14.8117 -20.7251,28.4245 -28.9891,37.9891 -8.2664,9.56696 -20.9932,-9.75478 -23.5837,-11.4818 -8.89601,-5.9287 -20.5691,24.4897 -36.8893,14.3581 -10.3076,-2.1298 -12.2992,8.61369 -14.1372,20.9849 -1.0336,6.95639 -14.3983,13.8289 -25.9367,20.7676 -8.09984,4.8703 -4.34937,11.34 -19.7883,12.1456 -13.0895,0.682764 -23.703,12.9867 -34.2386,20.3223 -24.6764,17.1801 -21.37,7.90139 -39.3192,-7.5104 -8.43414,-6.9623 -17.225,-5.49518 -26.9491,0 -20.3731,11.5113 1.66438,-31.6705 -23.1939,-34.2386 -16.0308,-1.65493 -24.5771,6.88197 -34.9013,-9.27755 -12.8449,-20.1037 -35.3242,5.08056 -49.7012,5.08056 -35.3419,0 -17.0738,28.4304 -33.5759,47.934 -1.30056,1.88646 -0.648507,14.3865 -0.883576,17.4506 -1.28756,16.7915 -23.5494,13.9742 -33.5759,13.9163 -17.4624,0 -46.0145,-3.0559 -60.525,5.52235 -13.2914,7.85651 -14.8058,10.6029 -36.2266,11.0447 -30.2507,0.623701 -30.9783,-14.8342 -59.8174,1.18834 -6.69297,3.7174 -13.8679,-5.2294 -20.4652,-4.02689 -23.4668,4.87857 -21.3192,8.04551 -44.3017,10.5698 -12.5803,1.38206 -21.4161,4.85967 -33.1341,4.85967 -19.7387,0 -15.0196,27.6543 -21.8685,35.7848 -5.49991,6.53114 -21.1373,5.00733 -23.8566,10.1611 -3.81072,7.22572 5.08056,8.6574 5.08056,14.7999 0,13.3352 -10.7943,46.3452 0.220894,55.8862 2.57513,2.23138 54.1439,45.8019 24.0775,39.9818 -10.2804,0 -31.8347,-3.92294 -38.6565,3.7552 -4.35173,4.89747 -10.4942,17.1033 -14.7999,20.1014 -20.7451,14.4432 -21.148,17.0088 -47.2713,12.8119 -14.0474,-2.25737 -19.3418,-8.61251 -37.7729,0.441788 -16.7218,8.21325 -27.4547,-10.0879 -42.8535,0 -9.04721,3.56266 -18.6283,4.41552 -27.6118,7.95219 -12.2106,4.8077 -27.1227,6.23583 -41.3072,3.97609l-68.4158 -10.903c-2.53969,-0.627245 -1.75416,-3.62526 -5.16325,-3.62526l-7.79981 0 -17.0277 0c-10.7021,0 -21.8543,0.825695 -31.5288,-1.86756 -10.0879,-2.80784 -12.1716,3.69023 -20.653,5.60268l-37.9005 0c-10.3808,0 -29.477,2.69207 -38.4498,-0.768995 -6.74731,-2.60348 -11.7168,-5.71253 -18.4748,-8.09748 -10.8793,-6.22165 -24.7082,-11.9318 -32.6923,-23.4148 -4.4545,-6.40711 -21.9559,-28.7599 -30.7043,-21.8685 -9.25747,7.29069 -17.9373,-3.53903 -18.9969,-11.7074 -2.30226,-17.7436 -31.9576,-22.7167 -44.2308,-40.6256 -5.00851,-7.30841 -7.70294,-14.7196 -13.7321,-22.1485 -6.51106,-8.0207 -28.2437,-38.0469 -37.2094,-42.5251 -15.967,-7.97345 -25.6592,6.46617 -36.3235,-12.4031 -14.6144,-25.8564 -35.6655,5.08765 -46.5118,-5.7586 -6.26418,-6.26418 -7.50922,-12.7292 -19.0477,-10.6313 -3.36539,0.611889 -12.4031,2.835 -12.4031,-3.54376 0,-15.4035 9.0165,-63.7427 -7.53048,-73.09 -18.874,-10.6632 -22.5607,-6.69652 -37.6524,-24.8063m81.8454 114.448c-2.18059,10.0217 -26.0502,16.3946 -27.3602,26.1258 -0.395719,2.93659 4.20998,3.02046 4.20998,6.78275 0,6.88906 -4.99906,8.30184 -8.65385,13.5655 -0.510301,0.733557 1.40333,12.9205 1.40333,15.6705 -5.35698,19.9017 -0.339019,29.1226 -25.7029,29.1226 -20.0683,0 -14.6924,7.35802 -4.69193,17.3585 6.00549,6.00549 15.7709,17.2203 13.1213,21.5767 -5.43612,8.93735 -5.63812,16.7112 -0.353194,28.9797 4.29976,9.97922 -2.08845,22.1638 -1.04423,28.6973 0.467776,2.93069 13.4403,15.0066 2.34479,15.0066 -26.2959,0 -58.909,12.5118 -84.3733,9.71225 -13.5773,-1.4931 -7.13122,-26.9278 -16.1394,-15.9812 -11.444,13.9092 -13.015,20.3376 -31.6812,20.3376m94.0253 -626.328c0.416982,-1.46475 -4.51711,-5.81885 -5.3806,-8.41996 -1.2037,-3.62172 0.467776,-12.2957 0.467776,-17.5416 0,-4.76045 -3.74221,-9.23621 -3.74221,-16.1383 0,-17.0844 2.23375,-13.1934 -7.7183,-28.7682 -9.35788,-14.6428 -23.038,2.10499 -39.2932,2.10499 -16.7998,0 -22.4698,-19.4127 -36.7204,-19.4127m950.7 -498.461c-2.1298,-12.3299 9.11218,-11.8976 0.999339,-25.0815 -6.55122,-10.649 -2.03648,-27.5751 -7.97227,-36.1097 -4.03279,-5.79995 -7.97227,-10.0926 -7.97227,-17.8204 0,-8.25459 -2.3436,-11.4298 -2.3436,-19.2272m1650.7 370.606c12.0937,-4.8266 19.8025,-13.9624 30.9878,-2.18059 7.64506,8.05141 8.8275,16.606 23.3888,16.606m-216.218 444.989c19.3773,-2.76885 29.7699,-1.84275 48.8483,-1.84275 12.8225,0 -7.27533,28.8367 10.3171,30.4822 5.68655,0.531563 16.1477,-5.19278 16.9427,-1.93017 3.29924,13.5336 0.385088,28.2898 11.1947,47.888 7.90376,14.3298 16.2316,26.6609 22.5111,31.2973 3.96783,2.92832 10.4529,-5.46093 14.5377,-5.84365 6.87371,-0.644964 11.8491,6.43074 19.2001,6.27245 8.90664,-0.191363 20.1274,-17.8251 30.1278,10.9348 6.09054,17.5168 24.7638,19.0063 23.3593,31.9033 -0.766633,7.04026 13.5998,7.86241 13.5998,19.6962 0,4.65059 1.29465,24.8547 4.68957,24.8547"/>
  <path class="fil0 str1" d="M38.8715 68.515l391.579 0m-391.579 7.97227l0 -16.4135m120.991 8.44123l0 -8.91018m74.7992 8.6763l0 8.67866m46.1917 -8.44477l0 -8.922"/>
  <text x="30.3983" y="52.626"  class="fil1 fnt0">0</text>
  <text x="30.3983" y="107.024"  class="fil1 fnt0">0</text>
  <text x="140.134" y="52.626"  class="fil1 fnt0">20</text>
  <text x="264.048" y="52.626"  class="fil1 fnt0">40 km</text>
  <text x="216.105" y="107.024"  class="fil1 fnt0">20</text>
  <text x="411.3" y="107.024"  class="fil1 fnt0">40 mi</text>
 </g>
</svg>
